PathFileType	4	(X/Y/Z)	markers
DataRate	CameraRate	NumFrames	NumMarkers	Units	OrigDataRate	OrigDataStartFrame	OrigNumFrames
200	200	8	39	mm	200	190	252
Frame#	Time	RASI			LASI			RPSI			LPSI			RTH1			RTH2			RTH3			RTH4			RLFC			RTB1			RTB2			RTB3			RTB4			RLMAL			RCAL			RTOE			RMT5			LTH1			LTH2			LTH3			LTH4			LLFC			LTB1			LTB2			LTB3			LTB4			LLMAL			LCAL			LTOE			LMT5			C7			T10			CLAV			RACR			LACR			RLEL			RFAradius			LLEL			LFAradius		
		X1	Y1	Z1	X2	Y2	Z2	X3	Y3	Z3	X4	Y4	Z4	X5	Y5	Z5	X6	Y6	Z6	X7	Y7	Z7	X8	Y8	Z8	X9	Y9	Z9	X10	Y10	Z10	X11	Y11	Z11	X12	Y12	Z12	X13	Y13	Z13	X14	Y14	Z14	X15	Y15	Z15	X16	Y16	Z16	X17	Y17	Z17	X18	Y18	Z18	X19	Y19	Z19	X20	Y20	Z20	X21	Y21	Z21	X22	Y22	Z22	X23	Y23	Z23	X24	Y24	Z24	X25	Y25	Z25	X26	Y26	Z26	X27	Y27	Z27	X28	Y28	Z28	X29	Y29	Z29	X30	Y30	Z30	X31	Y31	Z31	X32	Y32	Z32	X33	Y33	Z33	X34	Y34	Z34	X35	Y35	Z35	X36	Y36	Z36	X37	Y37	Z37	X38	Y38	Z38	X39	Y39	Z39
190	0.945000	2719.321609	917.499924	739.020165	2701.265191	943.638524	501.518263	2543.318540	947.245292	679.753977	2534.064783	957.808006	587.662707	2750.688273	666.048862	782.775556	2802.733112	680.091744	747.862416	2831.116633	582.036888	745.055804	2792.471195	566.915814	773.653420	2815.902515	441.368917	749.804734	2706.366038	419.026302	776.164857	2717.462054	375.389811	753.314383	2614.755612	347.108497	738.308147	2605.183602	402.813675	770.028530	2407.478979	358.905775	744.004481	2353.341663	402.858578	687.199479	2406.039818	183.824749	677.556546	2394.056258	224.911226	773.420266	2759.677599	690.085780	452.225908	2787.458688	710.904432	488.858889	2821.818977	619.951589	524.169349	2786.520530	587.335387	479.714414	2793.642208	461.771168	507.426773	2752.379663	367.955940	491.247460	2787.751340	350.647456	522.636114	2735.144040	265.218425	540.790601	2687.536595	283.056493	500.098781	2585.417307	102.302787	544.236944	2493.999984	95.149017	593.370097	2710.598516	60.928528	614.457039	2669.198221	57.407576	518.945391	2602.968539	1456.485380	610.001358	2520.721538	1267.604836	632.728479	2718.708980	1373.258543	634.790297	2654.092997	1433.109525	783.935472	2643.378912	1410.525470	436.901961	2527.012036	1125.629262	891.080726	2715.981645	975.262478	808.338074	2555.100103	1074.685020	348.917815	2790.942248	1069.885706	434.412414
191	0.950000	2733.771920	919.308451	739.015557	2715.546064	943.462832	502.147752	2557.700701	948.236588	680.309153	2548.319512	958.789536	587.838960	2768.943592	668.996358	782.619192	2820.778284	685.080663	747.851407	2851.298363	586.838553	743.690878	2814.001984	572.174876	773.723330	2839.266481	446.879914	750.058886	2729.498101	420.899370	775.747125	2742.927220	378.062535	753.539703	2641.023463	346.951870	738.484422	2629.431220	401.654468	770.673292	2433.588119	353.150251	743.915829	2377.087607	394.733282	688.150116	2436.729202	177.862974	677.990948	2425.524184	219.013629	775.083696	2771.146804	687.975236	452.786654	2798.903804	708.313270	489.770732	2831.456153	616.602519	525.302680	2796.401356	585.019714	480.758558	2800.170001	457.834441	508.204598	2757.776794	365.055016	491.979425	2792.698968	347.132320	523.612902	2738.605911	262.541389	541.955677	2690.941656	281.905182	500.270467	2585.916973	102.501272	544.532357	2494.278426	95.870960	593.899357	2710.846570	60.604149	614.427787	2669.356086	57.492820	519.054728	2617.004082	1457.639880	610.356299	2534.550524	1268.172770	631.430053	2732.824637	1374.065567	635.271007	2666.967741	1434.386748	784.180997	2658.399021	1412.709648	437.042970	2533.725629	1128.490686	890.821667	2721.800426	974.973199	811.090861	2576.770957	1074.962820	348.991288	2811.384252	1076.543899	437.449556
192	0.955000	2747.547431	921.196514	739.170452	2730.514318	942.760852	504.082608	2571.830431	949.964549	681.077497	2562.638083	960.101236	588.565642	2787.273959	673.033863	783.233439	2838.525079	689.610780	746.988410	2871.443148	592.950955	744.315806	2833.199539	576.951492	773.395043	2862.606637	452.697321	748.811128	2753.256384	422.717176	776.534196	2766.813907	380.687233	752.547347	2666.176305	346.389081	738.468111	2654.444586	402.149607	769.968010	2458.563367	346.451928	744.967930	2400.894972	386.288162	688.767246	2468.558666	170.972851	678.332187	2456.014109	212.423598	776.363311	2782.117212	685.864725	453.839384	2810.616532	705.481678	490.507902	2841.061015	613.332129	526.405112	2804.379513	581.956491	481.561269	2806.513212	452.838229	508.260565	2762.024470	362.314975	493.169906	2796.742009	344.001877	524.629702	2741.282974	260.409281	542.774424	2694.194834	280.044490	501.800151	2586.403036	102.729091	544.954891	2495.393058	97.638164	594.818579	2711.043590	60.582572	614.290668	2669.625491	57.653283	519.282119	2631.228424	1459.230541	609.810776	2548.621475	1269.545452	630.884942	2746.610444	1375.623282	636.712406	2679.148565	1435.501497	784.211688	2673.104432	1414.227113	437.271744	2540.717481	1132.100021	890.313581	2728.371190	975.432437	814.718953	2598.069567	1075.900831	349.235604	2833.086778	1083.838641	441.195367
193	0.960000	2761.841893	925.121706	738.761384	2745.151951	942.656161	503.935087	2585.983446	951.730999	681.206538	2577.282674	960.439590	588.302234	2805.536898	677.463167	783.866273	2855.931269	695.199008	746.907244	2890.106450	599.897415	744.760951	2854.271998	581.681525	772.894228	2885.238531	459.381739	750.044950	2776.474011	425.516193	775.572205	2791.525504	383.083826	752.895030	2691.295403	346.330750	738.419114	2677.452251	400.974733	770.412679	2484.517462	339.944460	744.962273	2424.572286	377.081827	689.475198	2501.481018	165.598461	679.127846	2486.316410	205.621423	777.280620	2792.588069	683.814452	455.226982	2822.107880	702.340385	491.048102	2849.502062	610.157052	527.250264	2809.959675	578.165509	482.004598	2811.144113	450.196631	508.789179	2766.040955	360.176465	493.744102	2800.650561	341.362687	524.975875	2744.064415	258.565975	543.221585	2696.998792	279.070077	502.485702	2587.056415	103.260821	545.301585	2496.424282	99.403686	595.530887	2711.315103	60.564141	614.185518	2669.903234	57.900692	519.505002	2645.023491	1460.673640	610.408433	2562.663827	1270.943326	629.901770	2760.358093	1377.396011	637.230634	2691.505211	1437.398914	784.530241	2688.216975	1416.521793	437.591490	2547.714677	1136.234823	889.850327	2733.794952	976.857524	818.172533	2619.734427	1077.337669	349.533654	2852.002748	1091.650560	444.372510
194	0.965000	2775.301443	926.856296	739.172395	2759.992516	943.919594	505.695930	2600.870581	953.453965	679.952017	2591.267085	961.443831	588.632695	2823.645058	682.410943	784.230826	2873.430675	700.832554	746.988403	2909.700337	606.673242	743.917113	2874.196454	588.252517	773.816005	2907.646351	464.771077	748.372645	2800.775062	427.858389	775.298155	2815.381418	387.135199	752.868569	2716.615204	346.075287	738.154558	2701.086051	399.600534	770.088204	2509.303704	332.313963	745.420499	2448.819700	367.953176	689.961399	2533.491964	159.868216	680.015111	2517.172168	198.807268	777.854059	2802.558619	681.884621	456.792334	2832.705726	699.842148	492.185670	2858.790633	607.324969	527.914703	2817.740768	575.849852	482.529444	2815.423061	447.582281	509.290100	2770.109300	358.183830	494.139782	2804.467076	339.093049	525.404153	2746.964353	257.069635	544.045356	2699.775621	278.224980	502.970427	2588.286219	104.520211	545.845277	2496.427952	101.079033	596.141262	2711.498329	60.539085	614.135727	2670.389611	58.186080	519.715781	2659.294053	1462.591752	610.179015	2577.094338	1272.561716	628.528309	2774.030044	1379.040736	638.074644	2703.627801	1439.350192	784.663174	2703.570815	1419.275449	438.195361	2554.772050	1140.726845	889.377595	2740.965073	978.661119	820.769889	2640.345411	1078.757978	349.863570	2870.855127	1099.757546	447.405056
195	0.970000	2788.430917	928.152428	739.115324	2775.375034	943.500150	505.099190	2614.667586	956.002170	681.647979	2604.626964	962.810745	589.226114	2841.538785	687.541167	785.264804	2890.824988	707.480220	747.654226	2928.827186	613.446018	743.635795	2894.068833	593.373134	772.132520	2929.208282	472.115436	748.821380	2822.480247	430.586848	775.262392	2839.776976	390.712764	752.670535	2742.202381	345.663714	737.662555	2724.895515	398.367759	769.098068	2535.863585	326.187664	745.348457	2472.867774	357.928333	689.392420	2566.166396	152.986556	680.028297	2548.408417	192.007160	778.126776	2811.668292	680.120325	458.450930	2842.526441	697.566155	493.228277	2867.302803	604.619862	527.940922	2825.036412	573.995449	483.103541	2819.512729	445.506861	509.587257	2773.329557	357.017198	494.239548	2807.492273	337.839753	525.573379	2749.001906	256.620138	544.420918	2702.353466	277.822181	503.610307	2589.296427	105.901658	546.478170	2497.081146	103.423507	596.540656	2711.741423	60.574842	614.087361	2671.070342	58.437206	520.032149	2672.953835	1464.395004	610.372187	2591.261511	1274.411423	628.013880	2787.776941	1381.429054	639.040630	2715.399925	1441.545076	784.753048	2719.347116	1422.317663	438.972125	2562.424286	1145.512162	888.450493	2748.406254	981.860204	824.421271	2661.682567	1080.862804	350.444096	2889.380142	1108.057506	450.397179
196	0.975000	2802.710489	932.008235	739.636096	2789.574014	945.403292	504.015839	2628.735726	957.681586	681.623112	2617.406118	963.545133	589.530858	2859.655022	692.785377	785.931438	2907.905012	714.140075	748.280321	2947.824710	620.401374	743.494222	2913.527549	600.965739	773.496251	2950.909320	478.528538	748.138193	2844.859241	434.092987	775.291684	2863.352339	394.259032	752.697837	2767.975372	345.906951	738.078508	2747.808153	398.249980	770.423527	2560.812841	318.801260	746.156966	2498.080446	348.078608	689.624952	2599.581328	146.784960	680.225685	2579.852194	185.247128	778.141918	2821.760837	678.763581	459.348487	2851.719935	696.474121	495.225790	2875.609484	601.982933	528.119946	2836.836804	574.725449	484.042960	2823.246153	444.208139	509.586680	2776.868069	356.509722	494.315499	2810.875786	337.181851	525.620839	2751.458450	256.778212	544.737367	2705.118937	278.169574	504.176786	2590.335496	107.945491	547.035166	2497.753953	106.121620	596.890995	2712.098057	60.653025	614.065550	2671.620697	58.678322	520.318853	2686.710832	1466.547075	610.261013	2605.677399	1276.436369	626.671905	2801.511888	1383.943520	640.435973	2727.215487	1444.314789	784.874824	2734.724035	1425.506270	439.323494	2569.508673	1150.651074	887.607795	2754.891942	984.095870	826.913874	2682.798359	1083.599810	351.190355	2908.388574	1117.068524	453.913179
197	0.980000	2816.922835	935.740146	739.672236	2803.826175	947.341228	502.849538	2642.363560	959.847473	681.985919	2633.509077	966.634137	589.476454	2877.522595	698.087999	785.576916	2924.964600	719.838779	746.661150	2967.030617	627.724942	743.069621	2933.290158	607.145092	772.917553	2971.725363	485.103836	747.640236	2865.850096	436.432710	775.213409	2886.640149	397.990868	752.804106	2793.342917	346.173535	738.101362	2771.899390	397.432421	769.948095	2587.673516	310.599642	745.814641	2522.994145	337.589308	689.873410	2633.594931	141.123139	680.565296	2611.330531	178.553196	777.942631	2831.312740	678.899478	459.621773	2862.682300	695.434614	494.873372	2884.841823	600.389871	528.009416	2843.906281	574.050311	484.554530	2827.683518	444.161530	509.268869	2780.633980	356.471131	494.197874	2814.813484	336.605990	524.928306	2754.474394	256.971208	544.330002	2708.045853	279.205663	504.640271	2591.078411	109.743118	547.609530	2499.557769	109.462745	597.149805	2712.495856	60.567881	614.001710	2670.872259	58.228337	520.463152	2700.451194	1468.791872	610.002413	2619.744215	1278.802045	625.463458	2815.277968	1386.852908	641.443817	2738.981936	1446.965902	784.953550	2750.099027	1429.317551	439.811636	2577.320905	1156.230356	886.723872	2761.274528	987.396431	829.504665	2703.748479	1086.336821	351.570989	2927.123584	1126.205210	456.858387
